<svg width="20" height="15" viewBox="0 0 20 15" fill="none" xmlns="http://www.w3.org/2000/svg">
<rect x="4.51283" y="2.46153" width="5.74359" height="0.820513" rx="0.410256" stroke="#333333" stroke-width="0.820513"/>
<path d="M19.3536 5.35355C19.5488 5.15829 19.5488 4.84171 19.3536 4.64645L16.1716 1.46447C15.9763 1.2692 15.6597 1.2692 15.4645 1.46447C15.2692 1.65973 15.2692 1.97631 15.4645 2.17157L18.2929 5L15.4645 7.82843C15.2692 8.02369 15.2692 8.34027 15.4645 8.53553C15.6597 8.7308 15.9763 8.7308 16.1716 8.53553L19.3536 5.35355ZM3 5.5H19V4.5H3V5.5Z" fill="#333333"/>
<path fill-rule="evenodd" clip-rule="evenodd" d="M2 1H12.7692C13.3215 1 13.7692 1.44772 13.7692 2V2.5C13.7692 2.77614 13.9931 3 14.2692 3V3C14.5454 3 14.7692 2.77614 14.7692 2.5V2C14.7692 0.895431 13.8738 0 12.7692 0H2C0.895431 0 0 0.895431 0 2V12.7692C0 13.8738 0.895431 14.7692 2 14.7692H12.7692C13.8738 14.7692 14.7692 13.8738 14.7692 12.7692V7.5C14.7692 7.22386 14.5454 7 14.2692 7V7C13.9931 7 13.7692 7.22386 13.7692 7.5V12.7692C13.7692 13.3215 13.3215 13.7692 12.7692 13.7692H2C1.44772 13.7692 1 13.3215 1 12.7692V2C1 1.44772 1.44772 1 2 1Z" fill="#333333"/>
</svg>
