<svg width="40" height="36" viewBox="0 0 40 36" fill="none" xmlns="http://www.w3.org/2000/svg">
<rect x="10.5" y="5.5" width="15" height="3" rx="1.5" stroke="black"/>
<path d="M39.3536 13.3536C39.5488 13.1583 39.5488 12.8417 39.3536 12.6464L36.1716 9.46447C35.9763 9.2692 35.6597 9.2692 35.4645 9.46447C35.2692 9.65973 35.2692 9.97631 35.4645 10.1716L38.2929 13L35.4645 15.8284C35.2692 16.0237 35.2692 16.3403 35.4645 16.5355C35.6597 16.7308 35.9763 16.7308 36.1716 16.5355L39.3536 13.3536ZM8 13.5H39V12.5H8V13.5Z" fill="black"/>
<path fill-rule="evenodd" clip-rule="evenodd" d="M5 1H31C33.2091 1 35 2.79086 35 5V8H36V5C36 2.23858 33.7614 0 31 0H5C2.23858 0 0 2.23858 0 5V31C0 33.7614 2.23858 36 5 36H31C33.7614 36 36 33.7614 36 31V18H35V31C35 33.2091 33.2091 35 31 35H5C2.79086 35 1 33.2091 1 31V5C1 2.79086 2.79086 1 5 1Z" fill="black"/>
</svg>
